<svg xmlns="http://www.w3.org/2000/svg" viewBox="0 0 24 24" width="24px" height="24px"
    enable-background="new 0 0 24 24"
    xml:space="preserve">
    <title>medium</title>
    <g id="medium_default">
        <path fill="#1b96ff"
            d="M7 6A7 7 0 107 20 7 7 0 107 6zM18 6.5A3 6.5 0 1018 19.5 3 6.5 0 1018 6.5zM23 8A1 5 0 1023 18 1 5 0 1023 8z" />
    </g>
    <g id="medium_hover">
        <path fill="#ffffff"
            d="M7 6A7 7 0 107 20 7 7 0 107 6zM18 6.5A3 6.5 0 1018 19.5 3 6.5 0 1018 6.5zM23 8A1 5 0 1023 18 1 5 0 1023 8z" />
    </g>
</svg>